<svg width="15" height="15" viewBox="0 0 15 15" fill="none" xmlns="http://www.w3.org/2000/svg">
<path id="Vector" d="M14.2318 5.02471L10.1356 4.40039L8.30516 0.521777C8.14061 0.175195 7.81962 0 7.49864 0C7.17961 0 6.86087 0.172852 6.69576 0.521777L4.86471 4.4001L0.768306 5.02383C0.0337063 5.13516 -0.260693 6.08115 0.271857 6.62314L3.23516 9.64072L2.53386 13.9028C2.43424 14.5116 2.89851 15 3.41846 15C3.55643 15 3.69831 14.9657 3.8346 14.8901L7.4992 12.878L11.1635 14.8907C11.2995 14.9654 11.4411 14.9994 11.5785 14.9994C12.0991 14.9994 12.5642 14.5128 12.4645 13.9037L11.7641 9.64131L14.7279 6.62432C15.2608 6.08232 14.9664 5.13603 14.2318 5.02471ZM10.8249 8.63408L10.3178 9.15029L10.4376 9.8792L10.9839 13.2029L8.12578 11.6329L7.49948 11.289L7.50032 1.99629L8.92838 5.02236L9.24125 5.68535L9.94115 5.79199L13.1378 6.2792L10.8249 8.63408Z" fill="#E0BC00"/>
</svg>
